<?xml version="1.0" encoding="utf-8"?>
<?xml-stylesheet type="text/xsl" href="rss1.xsl"?>
<rss version="2.0" xmlns:atom="http://www.w3.org/2005/Atom" xmlns:content="http://purl.org/rss/1.0/modules/content/" xmlns:dc="http://purl.org/dc/elements/1.1/" xmlns:media="http://search.yahoo.com/mrss/">
<channel>
 <title>Getty</title>
 <link>http://www.gettyimg.com/</link>
 <atom:link href="http://www.gettyimg.com/" rel="self" type="application/rss+xml" />

 
                <item>
                <title><![CDATA[【HD Live Performances】WEB-DL - Noel Gallagher's High Flying Birds live at Fuji Rock Festival 2024 WEB-DL.1080p-Tknobi]]></title>
                <link><![CDATA[https://sharemania.us/threads/noel-gallaghers-high-flying-birds-live-at-fuji-rock-festival-2024-web-dl-1080p-tknobi.251296/]]></link>
                <description><![CDATA[<article>
<blockquote class="messageText SelectQuoteContainer ugc baseHtml">
<div style="text-align: center"><img src="https://i.postimg.cc/XY1pgGkS/Noel-Gallagher-s-High-Flying-Birds-live-at-Fuji-Rock-Festival-2024-WEB-DL-1080p-Tknobi-mkv.jpg" class="bbCodeImage LbImage" alt="[​IMG]" data-url="https://i.postimg.cc/XY1pgGkS/Noel-Gallagher-s-High-Flying-Birds-live-at-Fuji-Rock-Festival-2024-WEB-DL-1080p-Tknobi-mkv.jpg" style=""> <br>
​</div>
<div class="ToggleTriggerAnchor bbCodeSpoilerContainer">
<button type="button" class="button bbCodeSpoilerButton ToggleTrigger Tooltip JsOnly" data-target="> .SpoilerTarget"><span>Spoiler: <span class="SpoilerTitle">MediaInfo</span></span></button>
<div class="SpoilerTarget bbCodeSpoilerText">Format : Matroska<br>
Format version : Version 4<br>
File size : 3.03 GiB<br>
Duration : 1 h 37 min<br>
Overall bit rate : 4 449 kb/s<br>
Encoded date : UTC 2024-07-28 22:05:36<br>
Writing application : mkvmerge v66.0.0 ('Josie') 64-bit<br>
Writing library : libebml v1.4.2 + libmatroska v1.6.4<br>
<br>
Video<br>
ID : 1<br>
Format : AVC<br>
Format/Info : Advanced Video Codec<br>
Format profile : High@L4<br>
Format settings : CABAC / 1 Ref Frames<br>
Format settings, CABAC : Yes<br>
Format settings, Reference frames : 1 frame<br>
Format settings, GOP : M=1, N=60<br>
Codec ID : V_MPEG4/ISO/AVC<br>
Duration : 1 h 37 min<br>
Bit rate : 4 186 kb/s<br>
Width : 1 920 pixels<br>
Height : 1 080 pixels<br>
Display aspect ratio : 16:9<br>
Frame rate mode : Variable<br>
Frame rate : 29.970 FPS<br>
Standard : Component<br>
Color space : YUV<br>
Chroma subsampling : 4:2:0<br>
Bit depth : 8 bits<br>
Scan type : Progressive<br>
Bits/(Pixel*Frame) : 0.067<br>
Stream size : 2.85 GiB (94%)<br>
Default : Yes<br>
Forced : No<br>
Color range : Limited<br>
<br>
Audio<br>
ID : 2<br>
Format : AAC LC<br>
Format/Info : Advanced Audio Codec Low Complexity<br>
Codec ID : A_AAC-2<br>
Duration : 1 h 37 min<br>
Bit rate : 265 kb/s<br>
Channel(s) : 2 channels<br>
Channel layout : L R<br>
Sampling rate : 48.0 kHz<br>
Frame rate : 46.875 FPS (1024 SPF)<br>
Compression mode : Lossy<br>
Delay relative to video : 16 ms<br>
Stream size : 181 MiB (6%)<br>
Default : Yes<br>
Forced : No</div>
</div><br>
<br>
<div style="text-align: center">
<div class="bbCodeBlock bbCodeVfcHH HiddenContent">
<div class="attribution type">Hidden Content:</div>
<blockquote>You must reply before you can see the hidden data contained here.</blockquote>
</div></div>
<div class="messageTextEndMarker">&nbsp;</div>
</blockquote>
</article>]]></description>
                <author><![CDATA[tknobi]]></author>
                </item>

                
                <item>
                <title><![CDATA[【HD Live Performances】WEB-RiP - Ghost - Rite Here Rite Now (1080p)]]></title>
                <link><![CDATA[https://sharemania.us/threads/ghost-rite-here-rite-now-1080p.251293/]]></link>
                <description><![CDATA[<article>
<blockquote class="messageText SelectQuoteContainer ugc baseHtml">
<div style="text-align: center"><b><span style="font-size: 22px">Ghost - Rite Here Rite Now (1080p WEB-RiP)</span></b><br>
<span style="font-size: 12px"><i>Downloaded from VEEPS livestream (not screencapped)</i><br>
</span><br>
<span style="font-size: 22px"><b><img src="https://m.media-amazon.com/images/M/MV5BNWMxODExMDEtMzcwZC00ZDk0LWJhOTEtZjZhYWU3OWQ4N2U3XkEyXkFqcGdeQXVyMTY3ODkyNDkz._V1_.jpg" class="bbCodeImage LbImage" alt="[​IMG]" data-url="https://m.media-amazon.com/images/M/MV5BNWMxODExMDEtMzcwZC00ZDk0LWJhOTEtZjZhYWU3OWQ4N2U3XkEyXkFqcGdeQXVyMTY3ODkyNDkz._V1_.jpg" style=""> </b></span><br>
<br>
<b><span style="font-size: 18px">Format: .mp4<br>
Size: 2.3 GB</span></b><br>
<br>
<img src="https://i.imgur.com/8yiEubl.jpeg" class="bbCodeImage LbImage" alt="[​IMG]" data-url="https://i.imgur.com/8yiEubl.jpeg" style=""><br>
<br>
<div class="ToggleTriggerAnchor bbCodeSpoilerContainer">
<button type="button" class="button bbCodeSpoilerButton ToggleTrigger Tooltip JsOnly" data-target="> .SpoilerTarget"><span>Spoiler: <span class="SpoilerTitle">MEDIAINFO</span></span></button>
<div class="SpoilerTarget bbCodeSpoilerText">General<br>
<span style="font-size: 15px">Format : MPEG-4<br>
Format profile : Base Media<br>
Codec ID : isom (isom/iso2/avc1/mp41)<br>
File size : 2.32 GiB<br>
Duration : 2 h 19 min<br>
Overall bit rate : 2 388 kb/s<br>
Frame rate : 24.000 FPS<br>
Writing application : Lavf59.33.100<br>
<br>
Video<br>
ID : 1<br>
Format : AVC<br>
Format/Info : Advanced Video Codec<br>
Format profile : High@L4.1<br>
Format settings : CABAC / 4 Ref Frames<br>
Format settings, CABAC : Yes<br>
Format settings, Reference fra : 4 frames<br>
Codec ID : avc1<br>
Codec ID/Info : Advanced Video Coding<br>
Duration : 2 h 19 min<br>
Bit rate : 2 250 kb/s<br>
Maximum bit rate : 31.3 Mb/s<br>
Width : 1 920 pixels<br>
Height : 1 080 pixels<br>
Display aspect ratio : 16:9<br>
Frame rate mode : Constant<br>
Frame rate : 24.000 FPS<br>
Color space : YUV<br>
Chroma subsampling : 4:2:0<br>
Bit depth : 8 bits<br>
Scan type : Progressive<br>
Bits/(Pixel*Frame) : 0.045<br>
Stream size : 2.19 GiB (94%)<br>
Writing library : x264 core 164 r56 e067ab0<br>
Encoding settings : cabac=1 / ref=4 / deblock=1:-1:-1 / analyse=0x3:0x133 / me=umh / subme=9 / psy=1 / psy_rd=1.00:0.15 / mixed_ref=1 / me_range=24 / chroma_me=1 / trellis=2 / 8x8dct=1 / cqm=0 / deadzone=21,11 / fast_pskip=0 / chroma_qp_offset=-3 / threads=24 / lookahead_threads=2 / sliced_threads=0 / nr=0 / decimate=1 / interlaced=0 / bluray_compat=0 / constrained_intra=0 / bframes=3 / b_pyramid=2 / b_adapt=2 / b_bias=0 / direct=3 / weightb=1 / open_gop=0 / weightp=2 / keyint=250 / keyint_min=23 / scenecut=40 / intra_refresh=0 / rc_lookahead=60 / rc=2pass / mbtree=1 / bitrate=2250 / ratetol=1.0 / qcomp=0.60 / qpmin=0 / qpmax=69 / qpstep=4 / cplxblur=20.0 / qblur=0.5 / vbv_maxrate=31250 / vbv_bufsize=31250 / nal_hrd=none / filler=0 / ip_ratio=1.40 / aq=1:1.00<br>
Color range : Limited<br>
Color primaries : BT.709<br>
Transfer characteristics : BT.709<br>
Matrix coefficients : BT.709<br>
Codec configuration box : avcC<br>
<br>
Audio<br>
ID : 2<br>
Format : AAC LC<br>
Format/Info : Advanced Audio Codec Low Complexity<br>
Codec ID : mp4a-40-2<br>
Duration : 2 h 19 min<br>
Source duration : 2 h 19 min<br>
Bit rate mode : Constant<br>
Bit rate : 129 kb/s<br>
Channel(s) : 2 channels<br>
Channel layout : L R<br>
Sampling rate : 48.0 kHz<br>
Frame rate : 46.875 FPS (1024 SPF)<br>
Compression mode : Lossy<br>
Stream size : 129 MiB (5%)<br>
Source stream size : 129 MiB (5%)<br>
Default : Yes<br>
Alternate group : 1</span></div>
</div><br>
<div class="ToggleTriggerAnchor bbCodeSpoilerContainer">
<button type="button" class="button bbCodeSpoilerButton ToggleTrigger Tooltip JsOnly" data-target="> .SpoilerTarget"><span>Spoiler: <span class="SpoilerTitle">SCREENSHOTS</span></span></button>
<div class="SpoilerTarget bbCodeSpoilerText"><img src="https://i.imgur.com/dzImuJp.jpeg" class="bbCodeImage LbImage" alt="[​IMG]" data-url="https://i.imgur.com/dzImuJp.jpeg" style=""><br>
<img src="https://i.imgur.com/yloai4G.jpeg" class="bbCodeImage LbImage" alt="[​IMG]" data-url="https://i.imgur.com/yloai4G.jpeg" style=""><br>
<img src="https://i.imgur.com/vymGG3W.jpeg" class="bbCodeImage LbImage" alt="[​IMG]" data-url="https://i.imgur.com/vymGG3W.jpeg" style=""><br>
<img src="https://i.imgur.com/3bHiFbw.jpeg" class="bbCodeImage LbImage" alt="[​IMG]" data-url="https://i.imgur.com/3bHiFbw.jpeg" style=""></div>
</div><br>
<b><span style="font-size: 18px">DOWNLOAD</span></b><br>
<div class="bbCodeBlock bbCodeVfcHH HiddenContent">
<div class="attribution type">Hidden Content:</div>
<blockquote>You must either reply or click 'Like' to see the hidden information contained here.</blockquote>
</div></div>
<div class="messageTextEndMarker">&nbsp;</div>
</blockquote>
</article>]]></description>
                <author><![CDATA[betoisxx]]></author>
                </item>

                
                <item>
                <title><![CDATA[【SD Live Performances】SDTV - Girls Aloud - No Good Advice (23May2003) - Top of the Pops 2 Girl Groups 03Mar2012 BBC 2 576i MPA2.0 MPEG2-dylwys]]></title>
                <link><![CDATA[https://sharemania.us/threads/girls-aloud-no-good-advice-23may2003-top-of-the-pops-2-girl-groups-03mar2012-bbc-2-576i-mpa2-0-mpeg2-dylwys.251294/]]></link>
                <description><![CDATA[<article>
<blockquote class="messageText SelectQuoteContainer ugc baseHtml">
<img src="https://iili.io/dT9mN8x.png" class="bbCodeImage LbImage" alt="[​IMG]" data-url="https://iili.io/dT9mN8x.png" style=""><br>
<div style="text-align: center">
<div class="bbCodeBlock bbCodeVfcHH HiddenContent">
<div class="attribution type">Hidden Content:</div>
<blockquote>You must either reply or click 'Like' to see the hidden information contained here.</blockquote>
</div></div>
<div class="messageTextEndMarker">&nbsp;</div>
</blockquote>
</article>]]></description>
                <author><![CDATA[SCANDAL]]></author>
                </item>

                
                <item>
                <title><![CDATA[【Apple Music】WEB-RiP - Ewelina Lisowska - Niebo _ Piekło (Jaro Remix) (1080p)]]></title>
                <link><![CDATA[https://sharemania.us/threads/ewelina-lisowska-niebo-_-piek%C5%82o-jaro-remix-1080p.251295/]]></link>
                <description><![CDATA[<article>
<blockquote class="messageText SelectQuoteContainer ugc baseHtml">
<img src="https://i.postimg.cc/RVqYFMsd/Ewelina-Lisowska-Niebo-Piek-o-Jaro-Remix-mp4.jpg" class="bbCodeImage LbImage" alt="[​IMG]" data-url="https://i.postimg.cc/RVqYFMsd/Ewelina-Lisowska-Niebo-Piek-o-Jaro-Remix-mp4.jpg" style=""><br>
<br>
<div class="bbCodeBlock bbCodeCode">
<div class="type">Code:</div>
<pre>General
Complete name                  : G:\Новая папка\Ewelina Lisowska - Niebo _ Piekło (Jaro Remix).mp4
Format                         : MPEG-4
Format profile                 : Base Media
Codec ID                       : isom (isom/iso2/avc1/mp41)
File size                      : 164 MiB
Duration                       : 3 min 21 s
Overall bit rate               : 6 818 kb/s
Frame rate                     : 25.000 FPS
Movie name                     : Niebo / Piekło (Jaro Remix)
Performer                      : Ewelina Lisowska
Genre                          : Pop
ContentType                    : Music Video
Recorded date                  : 2017-02-14 08:00:00 UTC
Writing application            : Lavf56.30.100
Copyright                      : ℗ 2017 Universal Music Polska

Video
ID                             : 1
Format                         : AVC
Format/Info                    : Advanced Video Codec
Format profile                 : High@L4
Format settings                : CABAC / 4 Ref Frames
Format settings, CABAC         : Yes
Format settings, Reference fra : 4 frames
Format settings, Slice count   : 8 slices per frame
Codec ID                       : avc1
Codec ID/Info                  : Advanced Video Coding
Duration                       : 3 min 21 s
Bit rate                       : 6 556 kb/s
Width                          : 1 912 pixels
Height                         : 910 pixels
Display aspect ratio           : 2.101
Frame rate mode                : Constant
Frame rate                     : 25.000 FPS
Color space                    : YUV
Chroma subsampling             : 4:2:0
Bit depth                      : 8 bits
Scan type                      : Progressive
Bits/(Pixel*Frame)             : 0.151
Stream size                    : 157 MiB (96%)
Color range                    : Limited
Color primaries                : BT.709
Transfer characteristics       : BT.709
Matrix coefficients            : BT.709
Codec configuration box        : avcC

Audio
ID                             : 2
Format                         : AAC LC
Format/Info                    : Advanced Audio Codec Low Complexity
Codec ID                       : mp4a-40-2
Duration                       : 3 min 21 s
Duration_LastFrame             : -12 ms
Bit rate mode                  : Constant
Bit rate                       : 258 kb/s
Channel(s)                     : 2 channels
Channel layout                 : L R
Sampling rate                  : 48.0 kHz
Frame rate                     : 46.875 FPS (1024 SPF)
Compression mode               : Lossy
Stream size                    : 6.19 MiB (4%)
Default                        : Yes
Alternate group                : 1

</pre>
</div>
<div class="bbCodeBlock bbCodeVfcHH HiddenContent">
<div class="attribution type">Hidden Content:</div>
<blockquote>You must either reply or click 'Like' to see the hidden information contained here.</blockquote>
</div>
<div class="messageTextEndMarker">&nbsp;</div>
</blockquote>
</article>]]></description>
                <author><![CDATA[vitalya3]]></author>
                </item>

                </channel></rss>